<?xml version="1.0" encoding="UTF-8" standalone="no"?>
<svg width="242px" height="44px" viewBox="0 0 242 44" version="1.1" xmlns="http://www.w3.org/2000/svg" xmlns:xlink="http://www.w3.org/1999/xlink" xmlns:sketch="http://www.bohemiancoding.com/sketch/ns">
    <!-- Generator: Sketch 3.3.2 (12043) - http://www.bohemiancoding.com/sketch -->
    <title>codepen</title>
    <desc>Created with Sketch.</desc>
    <defs></defs>
    <g id="Page-1" stroke="none" stroke-width="1" fill="none" fill-rule="evenodd" sketch:type="MSPage">
        <g id="codepen" sketch:type="MSLayerGroup" fill="#FFFFFF">
            <g id="Group" sketch:type="MSShapeGroup">
                <path d="M16.011,11.064 C18.707,11.064 21.179,12.039 23.097,13.65 L25.707,10.539 C23.083,8.333 19.7,7.001 16.011,7.001 C7.689,7.001 0.918,13.772 0.918,22.094 C0.918,30.416 7.689,37.188 16.011,37.188 C19.7,37.188 23.083,35.856 25.707,33.649 L23.097,30.539 C21.179,32.151 18.707,33.124 16.011,33.124 C9.93,33.124 4.982,28.176 4.982,22.095 C4.982,16.014 9.93,11.064 16.011,11.064 L16.011,11.064 Z" id="Shape"></path>
                <path d="M99.562,7.873 L91.435,7.873 C90.313,7.873 89.403,8.783 89.403,9.904 L89.403,34.285 C89.403,35.408 90.313,36.316 91.435,36.316 L99.562,36.316 C107.404,36.316 113.784,29.937 113.784,22.093 C113.784,14.251 107.404,7.873 99.562,7.873 L99.562,7.873 Z M99.562,32.254 L93.466,32.254 L93.466,11.938 L99.562,11.938 C105.164,11.938 109.721,16.495 109.721,22.096 C109.722,27.697 105.164,32.254 99.562,32.254 L99.562,32.254 Z" id="Shape"></path>
                <path d="M124.786,9.904 L124.786,34.285 C124.786,35.408 125.695,36.316 126.818,36.316 L143.75,36.316 L143.75,32.253 L128.852,32.253 L128.852,24.126 L138.332,24.126 L138.332,20.063 L128.852,20.063 L128.852,11.936 L143.75,11.936 L143.75,7.874 L126.818,7.874 C125.695,7.873 124.786,8.783 124.786,9.904 L124.786,9.904 Z" id="Shape"></path>
                <path d="M186.289,9.904 L186.289,34.285 C186.289,35.408 187.198,36.316 188.32,36.316 L205.252,36.316 L205.252,32.253 L190.354,32.253 L190.354,24.126 L199.834,24.126 L199.834,20.063 L190.354,20.063 L190.354,11.936 L205.252,11.936 L205.252,7.874 L188.32,7.874 C187.198,7.873 186.289,8.783 186.289,9.904 L186.289,9.904 Z" id="Shape"></path>
                <path d="M166.952,7.873 L158.148,7.873 C157.025,7.873 156.116,8.783 156.116,9.904 L156.116,36.318 L160.179,36.318 L160.179,24.127 L166.95,24.127 C171.43,24.127 175.077,20.481 175.077,16 C175.077,11.519 171.434,7.873 166.952,7.873 L166.952,7.873 Z M166.952,20.062 L160.18,20.062 L160.18,11.935 L166.952,11.935 C169.193,11.935 171.015,13.757 171.015,15.998 C171.016,18.241 169.193,20.062 166.952,20.062 L166.952,20.062 Z" id="Shape"></path>
                <path d="M237.018,7.873 L237.018,28.674 L220.293,8.604 C219.745,7.946 218.846,7.703 218.04,7.995 C217.234,8.287 216.699,9.05 216.699,9.905 L216.699,36.319 L220.763,36.319 L220.763,15.518 L237.488,35.587 C237.883,36.061 238.458,36.318 239.05,36.318 C239.281,36.318 239.516,36.277 239.741,36.195 C240.546,35.904 241.082,35.14 241.082,34.285 L241.082,7.873 L237.018,7.873 L237.018,7.873 Z" id="Shape"></path>
                <path d="M77.861,15.168 C77.851,15.115 77.841,15.063 77.828,15.012 C77.82,14.981 77.808,14.952 77.799,14.921 C77.784,14.875 77.77,14.83 77.752,14.785 C77.738,14.754 77.725,14.724 77.71,14.695 C77.689,14.652 77.669,14.611 77.647,14.57 C77.629,14.542 77.612,14.513 77.593,14.484 C77.569,14.445 77.542,14.409 77.515,14.372 C77.494,14.346 77.473,14.318 77.451,14.292 C77.422,14.257 77.39,14.225 77.359,14.191 C77.334,14.166 77.31,14.142 77.284,14.118 C77.251,14.087 77.215,14.058 77.179,14.029 C77.152,14.008 77.124,13.986 77.095,13.966 C77.085,13.958 77.075,13.949 77.064,13.944 L57.254,0.736 C56.628,0.319 55.814,0.319 55.189,0.736 L35.377,13.941 C35.366,13.949 35.357,13.958 35.347,13.964 C35.318,13.984 35.29,14.006 35.262,14.028 C35.226,14.055 35.191,14.085 35.157,14.116 C35.132,14.139 35.107,14.163 35.083,14.188 C35.051,14.221 35.021,14.254 34.99,14.29 C34.968,14.315 34.947,14.343 34.927,14.37 C34.899,14.407 34.873,14.444 34.848,14.483 C34.83,14.512 34.812,14.54 34.795,14.569 C34.772,14.61 34.751,14.651 34.732,14.692 C34.717,14.723 34.704,14.753 34.69,14.783 C34.672,14.827 34.657,14.873 34.642,14.919 C34.632,14.95 34.621,14.98 34.614,15.01 C34.6,15.062 34.591,15.114 34.581,15.166 C34.576,15.192 34.57,15.22 34.566,15.246 C34.555,15.327 34.549,15.407 34.549,15.49 L34.549,28.697 C34.549,28.778 34.555,28.86 34.566,28.94 C34.57,28.966 34.576,28.994 34.581,29.02 C34.591,29.073 34.601,29.124 34.614,29.175 C34.622,29.206 34.633,29.235 34.642,29.266 C34.657,29.313 34.672,29.358 34.69,29.403 C34.704,29.434 34.717,29.464 34.732,29.494 C34.752,29.536 34.772,29.577 34.795,29.618 C34.812,29.647 34.83,29.676 34.848,29.704 C34.873,29.743 34.899,29.78 34.927,29.817 C34.948,29.844 34.968,29.871 34.99,29.897 C35.02,29.932 35.051,29.964 35.083,29.999 C35.107,30.024 35.132,30.048 35.157,30.071 C35.191,30.102 35.226,30.131 35.262,30.159 C35.29,30.18 35.318,30.203 35.347,30.223 C35.358,30.231 35.367,30.24 35.377,30.245 L55.188,43.452 C55.5,43.661 55.86,43.765 56.22,43.765 C56.58,43.765 56.941,43.661 57.253,43.452 L77.063,30.245 C77.075,30.238 77.084,30.228 77.094,30.223 C77.123,30.202 77.151,30.18 77.178,30.159 C77.214,30.131 77.25,30.102 77.283,30.071 C77.309,30.048 77.333,30.024 77.358,29.999 C77.389,29.966 77.42,29.933 77.45,29.897 C77.472,29.871 77.494,29.844 77.514,29.817 C77.541,29.78 77.568,29.743 77.592,29.704 C77.611,29.676 77.628,29.647 77.646,29.618 C77.668,29.577 77.689,29.536 77.709,29.494 C77.724,29.464 77.737,29.434 77.751,29.403 C77.769,29.358 77.783,29.313 77.798,29.266 C77.808,29.235 77.819,29.206 77.827,29.175 C77.841,29.124 77.85,29.072 77.86,29.02 C77.864,28.994 77.871,28.966 77.875,28.94 C77.885,28.86 77.892,28.778 77.892,28.697 L77.892,15.492 C77.892,15.409 77.885,15.329 77.875,15.248 C77.872,15.223 77.865,15.195 77.861,15.168 L77.861,15.168 Z M56.22,26.501 L49.633,22.096 L56.22,17.69 L62.808,22.096 L56.22,26.501 L56.22,26.501 Z M54.357,14.454 L46.282,19.855 L39.764,15.495 L54.357,5.766 L54.357,14.454 L54.357,14.454 Z M42.933,22.096 L38.273,25.212 L38.273,18.979 L42.933,22.096 L42.933,22.096 Z M46.282,24.336 L54.357,29.736 L54.357,38.424 L39.764,28.695 L46.282,24.336 L46.282,24.336 Z M58.082,29.736 L66.157,24.336 L72.676,28.695 L58.082,38.424 L58.082,29.736 L58.082,29.736 Z M69.508,22.096 L74.168,18.979 L74.168,25.211 L69.508,22.096 L69.508,22.096 Z M66.157,19.854 L58.082,14.454 L58.082,5.766 L72.676,15.495 L66.157,19.854 L66.157,19.854 Z" id="Shape"></path>
            </g>
        </g>
    </g>
</svg>