<svg id="Layer_1" data-name="Layer 1" xmlns="http://www.w3.org/2000/svg" width="20.923" height="17" viewBox="0 0 20.923 17"><title>github</title><g id="Page-1"><g id="Tablet-Portrait"><g id="Group-2"><path id="_" data-name="îª" d="M0,8.745Q0,9.113.02,9.44l0.041,0.654a4.732,4.732,0,0,0,.082.633Q0.2,11.034.286,11.32a3.608,3.608,0,0,0,.123.552Q0.49,12.137.593,12.4t0.2,0.49a4.256,4.256,0,0,0,.225.429,2.03,2.03,0,0,0,.225.409q0.143,0.2.286,0.388t0.306,0.368a2.987,2.987,0,0,0,.368.347,2.742,2.742,0,0,0,.368.306q0.2,0.143.388,0.266t0.388,0.245a2.859,2.859,0,0,0,.409.2Q4,15.978,4.23,16.081a4.812,4.812,0,0,0,.47.184q0.245,0.082.49,0.143T5.721,16.55q0.245,0.041.531,0.1t0.572,0.1q0.286,0.041.552,0.082a3.625,3.625,0,0,0,.552.041q0.286,0.041.593,0.061L9.133,16.98Q9.44,17,9.767,17h1.349q0.327,0,.633-0.02l0.613-.041q0.306-.02.593-0.061a3.625,3.625,0,0,0,.552-0.041q0.266-.041.552-0.082t0.572-.1q0.286-.061.531-0.1,0.286-.082.552-0.143t0.511-.143a4.812,4.812,0,0,0,.47-0.184,4.257,4.257,0,0,0,.429-0.225,2.859,2.859,0,0,0,.409-0.2l0.409-.245a3.9,3.9,0,0,0,.388-0.266q0.184-.143.388-0.306,0.163-.163.327-0.347l0.327-.368a2.588,2.588,0,0,0,.286-0.388l0.245-.409a4.256,4.256,0,0,0,.225-0.429q0.1-.225.2-0.49t0.184-.531a3.608,3.608,0,0,0,.123-0.552q0.082-.286.143-0.593a4.732,4.732,0,0,0,.082-0.633L20.9,9.44q0.02-.327.02-0.695a7.082,7.082,0,0,0-.1-1.206A5.5,5.5,0,0,0,20.494,6.4a7.733,7.733,0,0,0-.531-1.062,4.987,4.987,0,0,0-.756-0.96,1.121,1.121,0,0,0,.061-0.143l0.041-.123q0.02-.061.041-0.143A0.8,0.8,0,0,1,19.411,3.8a0.672,0.672,0,0,1,.02-0.163q0.02-.082.041-0.2l0.041-.245a1.76,1.76,0,0,0,.02-0.286,2.344,2.344,0,0,1,.02-0.286,1.313,1.313,0,0,0,0-.327,2.8,2.8,0,0,1-.02-0.347,1.428,1.428,0,0,0-.041-0.347q-0.041-.2-0.082-0.388t-0.1-.388q-0.061-.2-0.123-0.388t-0.143-.388L18.88,0H18.532a0.649,0.649,0,0,0-.184.041,0.947,0.947,0,0,0-.184.02l-0.2.041q-0.1.02-.225,0.041A1.614,1.614,0,0,0,17.49.2q-0.123.041-.266,0.082a1.794,1.794,0,0,0-.306.123q-0.163.082-.347,0.163t-0.347.163a2.859,2.859,0,0,0-.409.2l-0.409.245Q15.2,1.308,15,1.451a3.554,3.554,0,0,1-.45.266q-0.368-.082-0.817-0.163T12.77,1.41q-0.511-.061-1.083-0.082t-1.226-.02q-0.654,0-1.226.02T8.153,1.41q-0.511.061-.96,0.143t-0.817.163a3.554,3.554,0,0,1-.45-0.266q-0.2-.143-0.409-0.266L5.108,0.94A2.859,2.859,0,0,0,4.7.736Q4.5,0.654,4.311.572A3.648,3.648,0,0,1,3.984.409,1.293,1.293,0,0,0,3.7.286Q3.555,0.245,3.433.2A1.889,1.889,0,0,0,3.208.143Q3.106,0.123,2.983.1T2.758,0.061A0.947,0.947,0,0,0,2.575.041,0.672,0.672,0,0,0,2.37,0H1.982a0.059,0.059,0,0,0-.041.02A0.059,0.059,0,0,1,1.9.041H1.88Q1.8,0.245,1.737.429t-0.123.388q-0.061.2-.1,0.388T1.43,1.594a1.428,1.428,0,0,0-.041.347,2.8,2.8,0,0,1-.02.347,1.313,1.313,0,0,0,0,.327,2.343,2.343,0,0,1,.02.286,1.76,1.76,0,0,0,.02.286L1.451,3.433q0.02,0.123.041,0.2a0.672,0.672,0,0,1,.02.163,0.8,0.8,0,0,1,.061.163q0.02,0.082.041,0.143L1.655,4.23a1.121,1.121,0,0,0,.061.143,4.987,4.987,0,0,0-.756.96A7.733,7.733,0,0,0,.429,6.4,5.5,5.5,0,0,0,.1,7.54,7.082,7.082,0,0,0,0,8.745H0ZM2.575,11.32A3.112,3.112,0,0,1,2.656,10.6,3.529,3.529,0,0,1,2.9,9.91,3.871,3.871,0,0,1,3.31,9.236a3.262,3.262,0,0,1,.613-0.613,2.229,2.229,0,0,1,.184-0.163q0.1-.082.225-0.163a2.284,2.284,0,0,1,.245-0.143,1.872,1.872,0,0,1,.245-0.1q0.163-.041.306-0.082a2.144,2.144,0,0,1,.286-0.061l0.306-.041a2.633,2.633,0,0,1,.327-0.02H7.315a1.343,1.343,0,0,0,.327.041q0.163,0,.368.02t0.409,0.02a2.079,2.079,0,0,1,.409.041q0.245,0,.45.02T9.685,8.01h1.43q0.2,0,.409-0.02t0.409-.02a2.751,2.751,0,0,1,.45-0.041,3.519,3.519,0,0,0,.388-0.02,3.328,3.328,0,0,1,.368-0.02,0.982,0.982,0,0,0,.306-0.041h1.308a2.633,2.633,0,0,1,.327.02l0.306,0.041a2.144,2.144,0,0,1,.286.061q0.143,0.041.266,0.082a1.4,1.4,0,0,1,.286.1,1.261,1.261,0,0,1,.225.143q0.1,0.082.225,0.163a1.339,1.339,0,0,1,.2.163,5.023,5.023,0,0,1,.593.613,3.3,3.3,0,0,1,.429.674,3.529,3.529,0,0,1,.245.695,3.112,3.112,0,0,1,.082.715q0,0.2-.02.429t-0.041.409a3.452,3.452,0,0,1-.061.368q-0.041.184-.082,0.347a3.4,3.4,0,0,0-.143.327q-0.061.163-.123,0.306a1.647,1.647,0,0,1-.143.266l-0.163.245a1.47,1.47,0,0,1-.184.225q-0.1.1-.225,0.2a1.839,1.839,0,0,1-.266.184q-0.143.082-.306,0.163a2.672,2.672,0,0,1-.286.163q-0.163.082-.306,0.143a2.4,2.4,0,0,1-.286.1q-0.143.041-.306,0.082a0.654,0.654,0,0,1-.286.1q-0.163.02-.347,0.061a3.306,3.306,0,0,1-.388.061q-0.2.02-.45,0.061a4.065,4.065,0,0,1-.429.061q-0.225.02-.429,0.02a3.519,3.519,0,0,0-.388.02,3.153,3.153,0,0,1-.347.02H8.582a3.153,3.153,0,0,1-.347-0.02,3.519,3.519,0,0,0-.388-0.02q-0.2,0-.429-0.02a4.065,4.065,0,0,1-.429-0.061q-0.245-.041-0.45-0.061a3.306,3.306,0,0,1-.388-0.061Q5.966,15.406,5.8,15.386a1.009,1.009,0,0,1-.327-0.1Q5.353,15.243,5.21,15.2T4.9,15.1A2.109,2.109,0,0,1,4.6,14.957q-0.143-.082-0.306-0.163-0.123-.082-0.266-0.163a1.839,1.839,0,0,1-.266-0.184q-0.123-.1-0.225-0.2a1.47,1.47,0,0,1-.184-0.225l-0.163-.245a1.647,1.647,0,0,1-.143-0.266Q2.983,13.363,2.922,13.2a3.4,3.4,0,0,0-.143-0.327Q2.738,12.709,2.7,12.525a3.452,3.452,0,0,1-.061-0.368q-0.02-.184-0.041-0.409t-0.02-.429h0Zm10.5-.2a2.67,2.67,0,0,0,.1.756,2.118,2.118,0,0,0,.286.613,1.765,1.765,0,0,0,.409.429,0.88,0.88,0,0,0,1.022,0,1.765,1.765,0,0,0,.409-0.429,2.118,2.118,0,0,0,.286-0.613,2.848,2.848,0,0,0,0-1.512A2.118,2.118,0,0,0,15.3,9.746,1.765,1.765,0,0,0,14.9,9.317a0.88,0.88,0,0,0-1.022,0,1.765,1.765,0,0,0-.409.429,2.118,2.118,0,0,0-.286.613,2.67,2.67,0,0,0-.1.756h0Zm-7.846,0a2.67,2.67,0,0,0,.1.756,2.118,2.118,0,0,0,.286.613,1.765,1.765,0,0,0,.409.429,0.88,0.88,0,0,0,1.022,0,1.765,1.765,0,0,0,.409-0.429,2.118,2.118,0,0,0,.286-0.613,2.848,2.848,0,0,0,0-1.512,2.118,2.118,0,0,0-.286-0.613,1.765,1.765,0,0,0-.409-0.429,0.88,0.88,0,0,0-1.022,0,1.765,1.765,0,0,0-.409.429,2.118,2.118,0,0,0-.286.613,2.67,2.67,0,0,0-.1.756h0Z"/></g></g></g></svg>