<svg id="Layer_1" data-name="Layer 1" xmlns="http://www.w3.org/2000/svg" width="22.388" height="18.159" viewBox="0 0 22.388 18.159"><title>twitter</title><g id="Page-1"><g id="Tablet-Portrait"><g id="Group-5"><path id="twitter" d="M1.095,16.169a8.974,8.974,0,0,0,5.672-1.94,4.408,4.408,0,0,1-2.637-.945,4.555,4.555,0,0,1-1.642-2.239q0.5,0.05.9,0.05a4.907,4.907,0,0,0,1.194-.149A4.651,4.651,0,0,1,1.94,9.353,4.42,4.42,0,0,1,.9,6.418a5.132,5.132,0,0,0,2.09.547A4.721,4.721,0,0,1,1.493,5.323,4.175,4.175,0,0,1,.9,3.134,4.265,4.265,0,0,1,1.542.846,13.808,13.808,0,0,0,5.721,4.229,13.254,13.254,0,0,0,11,5.622a5.845,5.845,0,0,1-.1-1.045,4.408,4.408,0,0,1,1.343-3.234A4.408,4.408,0,0,1,15.473,0a4.527,4.527,0,0,1,3.383,1.443A8.956,8.956,0,0,0,21.741.348a4.337,4.337,0,0,1-1.99,2.488,7.992,7.992,0,0,0,2.637-.7A9.791,9.791,0,0,1,20.1,4.527v0.6a12.862,12.862,0,0,1-.547,3.682,13.635,13.635,0,0,1-1.642,3.532,13.315,13.315,0,0,1-2.637,2.985,11.724,11.724,0,0,1-3.632,2.09,14.241,14.241,0,0,1-4.627.746A12.741,12.741,0,0,1,0,16.119Q0.5,16.169,1.095,16.169Z"/></g></g></g></svg>