<svg id="Layer_1" data-name="Layer 1" xmlns="http://www.w3.org/2000/svg" width="28.557" height="23.133" viewBox="0 0 28.557 23.133"><title>w</title><g id="Page-1"><g id="Tablet-Portrait"><g id="Group-3"><g id="logo-W"><path id="signal4" d="M23.485,6.649a1.8,1.8,0,1,1,.827-2.4h0a1.8,1.8,0,0,1-.827,2.4h0Z" fill="none" stroke="#000" stroke-width="1.3"/><polygon id="signal3" points="19.822 21.65 12.102 5.822 17.024 5.821 22.284 16.604 19.822 21.65" fill="none" stroke="#000" stroke-width="1.3"/><path id="lin3" d="M21.081,5.822a3.595,3.595,0,1,1,6.462,0L22.284,16.6" fill="none" stroke="#000" stroke-width="1.3"/><path id="line2" d="M12.733,16.6l2.314-4.745" fill="none" stroke="#000" stroke-width="1.3"/><path id="line1" d="M1.013,8.972A3.591,3.591,0,1,1,5.031,10.9" fill="none" stroke="#000" stroke-width="1.3"/><path id="signal2" d="M7.473,5.812A3.594,3.594,0,0,1,5.03,10.895l5.241,10.746L12.734,16.6,7.473,5.812h0Z" stroke="#000" stroke-width="1.3"/><path id="signal1" d="M3.416,9.8a1.8,1.8,0,1,1,.827-2.4h0a1.8,1.8,0,0,1-.828,2.4h0Z" stroke="#000" stroke-width="1.3"/></g></g></g></g></svg>