<svg id="Layer_1" data-name="Layer 1" xmlns="http://www.w3.org/2000/svg" width="43.539" height="35.281" viewBox="0 0 43.539 35.281"><title>w</title><g id="Page-1"><g id="Tablet-Portrait"><g id="Group-3"><g id="logo-W"><path id="signal4" d="M35.8,10.141A2.739,2.739,0,1,1,37.06,6.479,2.739,2.739,0,0,1,35.8,10.141h0Z" fill="none" stroke="#000" stroke-width="2"/><polygon id="signal3" points="30.219 33 18.455 8.88 25.955 8.879 33.97 25.311 30.219 33" fill="none" stroke="#000" stroke-width="2"/><path id="lin3" d="M32.137,8.88a5.478,5.478,0,1,1,9.847,0L33.97,25.311" fill="none" stroke="#000" stroke-width="2"/><path id="line2" d="M19.416,25.31l3.526-7.23" fill="none" stroke="#000" stroke-width="2"/><path id="line1" d="M1.556,13.68a5.472,5.472,0,1,1,6.124,2.944" fill="none" stroke="#000" stroke-width="2"/><path id="signal2" d="M11.4,8.866a5.476,5.476,0,0,1-3.723,7.745l7.987,16.376L19.417,25.3,11.4,8.866h0Z" stroke="#000" stroke-width="2"/><path id="signal1" d="M5.218,14.941a2.739,2.739,0,1,1,1.261-3.662,2.739,2.739,0,0,1-1.261,3.662h0Z" stroke="#000" stroke-width="2"/></g></g></g></g></svg>