<svg id="Layer_1" data-name="Layer 1" xmlns="http://www.w3.org/2000/svg" width="24.167" height="17" viewBox="0 0 24.167 17"><title>youtube</title><path d="M23.925,3.667a5.236,5.236,0,0,0-.961-2.4A3.457,3.457,0,0,0,20.544.244C17.161,0,12.088,0,12.088,0H12.079S7.006,0,3.622.244A3.457,3.457,0,0,0,1.2,1.268a5.236,5.236,0,0,0-.961,2.4A36.566,36.566,0,0,0,0,7.578V9.412a36.566,36.566,0,0,0,.241,3.911,5.236,5.236,0,0,0,.961,2.4,4.1,4.1,0,0,0,2.664,1.034C5.8,16.941,12.083,17,12.083,17s5.078-.007,8.461-0.253a3.454,3.454,0,0,0,2.42-1.024,5.236,5.236,0,0,0,.961-2.4,36.625,36.625,0,0,0,.241-3.911V7.578A36.566,36.566,0,0,0,23.925,3.667ZM9.587,11.634V4.843l6.53,3.407Z" fill="#010101"/></svg>